<?xml version="1.0" standalone="no"?>
<!DOCTYPE svg PUBLIC "-//W3C//DTD SVG 20010904//EN"
 "http://www.w3.org/TR/2001/REC-SVG-20010904/DTD/svg10.dtd">
<svg version="1.0" xmlns="http://www.w3.org/2000/svg"
 width="1774.000000pt" height="451.000000pt" viewBox="0 0 1774.000000 451.000000"
 preserveAspectRatio="xMidYMid meet">
<metadata>
Created by potrace 1.16, written by Peter Selinger 2001-2019
</metadata>
<g transform="translate(0.000000,451.000000) scale(0.100000,-0.100000)"
fill="#000000" stroke="none">
<path d="M341 4203 c-1 -7 -7 -10 -15 -7 -8 3 -17 0 -21 -5 -3 -6 -10 -9 -15
-6 -5 3 -11 -4 -15 -15 -3 -11 -11 -20 -17 -20 -5 0 -7 -7 -4 -16 3 -8 2 -12
-4 -9 -9 6 -6 -118 5 -134 3 -5 1 -12 -4 -15 -7 -5 -8 -351 -1 -351 2 0 4 -10
5 -22 1 -13 0 -23 -4 -23 -10 0 -10 -54 1 -74 5 -10 6 -16 1 -13 -4 3 -8 -19
-9 -48 0 -32 4 -51 10 -48 5 4 6 1 2 -6 -10 -15 -13 -111 -5 -111 3 0 5 -10 3
-22 -8 -56 -10 -188 -2 -188 5 0 4 -10 -3 -21 -8 -15 -8 -19 0 -15 6 4 11 2
11 -3 0 -6 -5 -11 -10 -11 -7 0 -7 -6 0 -20 6 -12 7 -20 1 -20 -10 0 -8 -121
3 -138 3 -6 2 -13 -3 -16 -4 -3 -5 -24 -1 -46 4 -21 4 -38 1 -35 -8 4 -7 -93
1 -101 4 -3 2 -19 -2 -35 -6 -21 -5 -27 2 -23 8 5 9 1 3 -12 -10 -24 -13 -174
-3 -174 4 0 2 -13 -3 -29 -7 -19 -7 -36 -1 -46 5 -10 6 -34 2 -54 -4 -20 -5
-48 -3 -62 4 -30 4 -30 0 -109 -1 -36 1 -71 6 -77 6 -9 5 -13 -2 -13 -9 0 -9
-5 -1 -20 6 -11 7 -20 2 -20 -4 0 -8 -11 -8 -25 0 -14 5 -25 11 -25 5 0 3 -5
-5 -10 -13 -9 -13 -11 0 -20 10 -6 11 -10 3 -10 -7 0 -13 -7 -13 -15 0 -8 5
-15 12 -15 9 0 9 -3 0 -12 -7 -7 -8 -17 -1 -30 6 -12 6 -24 -1 -37 -12 -24
-13 -34 -1 -27 5 3 6 -8 2 -27 -9 -39 -6 -270 3 -285 3 -6 2 -13 -3 -16 -7 -5
-8 -351 -1 -351 2 0 4 -10 5 -23 1 -12 0 -22 -4 -22 -10 0 -10 -54 1 -74 5
-10 6 -16 1 -13 -4 3 -8 -19 -9 -48 0 -32 4 -51 10 -48 5 4 6 1 2 -6 -10 -15
-13 -111 -5 -111 3 0 5 -10 3 -22 -8 -56 -10 -188 -2 -188 5 0 4 -10 -3 -21
-8 -15 -8 -19 0 -15 6 4 11 2 11 -3 0 -6 -5 -11 -10 -11 -7 0 -7 -6 0 -20 6
-11 7 -20 1 -20 -5 0 -8 -29 -7 -65 1 -45 5 -65 14 -65 14 0 16 -17 2 -22 -6
-2 4 -17 22 -33 18 -17 29 -24 24 -18 -4 8 -2 13 7 13 8 0 18 -7 21 -16 3 -8
10 -12 16 -9 5 3 10 -3 10 -15 0 -12 4 -19 9 -16 5 3 12 -1 15 -10 4 -9 13
-14 21 -10 8 3 15 1 15 -4 0 -5 133 -9 323 -9 177 0 327 -1 332 -1 6 -1 60 0
120 1 61 1 119 1 130 1 245 -4 405 0 399 10 -4 6 2 7 15 3 12 -4 21 -2 21 4 0
6 7 11 16 11 11 0 15 6 11 20 -3 11 -2 20 3 20 4 0 8 64 10 142 3 190 3 198 9
192 3 -2 13 28 23 68 10 40 23 82 27 93 8 18 19 56 27 93 12 58 29 112 37 112
5 0 7 7 4 15 -4 8 -2 17 4 20 5 4 7 10 4 14 -2 5 6 36 20 71 13 34 24 65 23
69 0 3 1 8 2 11 3 8 8 33 15 65 3 17 11 46 17 65 7 19 13 37 13 40 0 3 11 39
24 80 13 41 25 82 26 90 2 8 4 15 5 15 1 0 3 10 6 23 2 12 12 48 23 80 22 68
34 112 36 132 0 8 6 25 13 36 6 12 14 37 16 55 3 19 13 60 24 91 10 32 14 55
9 51 -6 -3 -3 4 6 16 8 13 13 30 10 37 -3 8 1 14 8 14 7 0 10 3 7 6 -4 3 0 20
7 39 8 18 11 35 8 39 -4 3 -1 6 5 6 7 0 12 5 12 11 0 5 -6 7 -12 3 -9 -6 -9
-3 0 9 8 9 11 20 8 26 -3 5 -2 11 4 13 5 1 11 15 12 31 1 15 6 27 11 27 4 0 6
3 3 8 -2 4 5 32 15 62 11 30 22 64 25 75 3 11 7 27 9 35 2 8 4 17 6 20 1 3 3
10 4 15 2 6 4 13 5 18 3 9 4 15 13 60 5 20 11 37 15 37 4 0 8 10 9 23 3 26 7
46 16 67 7 16 18 66 19 88 1 6 5 12 10 12 5 0 8 8 7 18 -1 9 4 31 11 47 7 17
12 34 11 39 -1 4 4 14 10 22 6 8 9 14 5 14 -3 0 -1 11 4 25 5 14 12 37 15 50
3 14 8 37 11 52 3 15 9 30 13 33 5 3 12 23 16 45 9 45 9 44 18 65 4 8 8 26 10
40 2 14 7 32 10 40 15 37 59 197 59 213 -1 9 3 15 7 13 4 -3 7 5 6 17 -1 12 3
33 10 47 7 14 16 44 20 68 4 23 11 42 16 42 6 0 8 4 5 9 -3 5 1 25 9 45 8 20
12 36 9 36 -4 0 -1 7 6 15 7 8 12 49 13 97 2 82 2 83 -27 96 -16 8 -39 15 -51
16 -13 0 -21 4 -19 7 2 4 -8 10 -21 13 -14 4 -23 10 -20 15 6 11 -23 23 -36
15 -5 -3 -9 1 -9 8 0 10 -2 10 -9 -1 -6 -9 -11 -10 -15 -2 -5 8 -13 8 -28 0
-12 -7 -18 -7 -14 -1 5 8 -55 9 -84 2 -3 -1 -27 -1 -55 -1 -27 1 -77 -5 -110
-13 -33 -8 -63 -12 -67 -10 -5 3 -8 1 -8 -5 0 -5 -11 -8 -24 -5 -14 2 -31 -2
-39 -11 -12 -11 -17 -12 -20 -2 -3 7 -6 5 -6 -5 -1 -11 -8 -16 -21 -13 -11 2
-20 -1 -20 -7 0 -6 -3 -8 -7 -5 -3 4 -15 -1 -26 -10 -11 -10 -17 -12 -13 -6 5
9 2 11 -8 7 -9 -3 -14 -10 -11 -14 6 -10 -24 -22 -36 -14 -5 3 -9 0 -9 -6 0
-6 -5 -8 -10 -5 -6 3 -10 -2 -10 -11 0 -10 -3 -14 -7 -11 -3 4 -12 -2 -20 -13
-7 -10 -20 -17 -28 -14 -9 4 -22 -6 -34 -27 -15 -25 -20 -28 -20 -13 -1 299
-7 353 -46 362 -11 2 -37 6 -57 9 -25 3 -35 9 -32 18 3 7 1 16 -5 20 -6 3 -11
1 -11 -5 0 -7 -8 -6 -21 4 -12 8 -28 12 -37 9 -9 -4 -13 -2 -9 4 7 11 -34 9
-54 -3 -7 -4 -10 -3 -6 3 4 6 -119 9 -334 9 -230 0 -339 -3 -339 -10 0 -6 -4
-5 -9 3 -8 13 -12 13 -27 0 -10 -8 -15 -9 -12 -3 8 12 -420 14 -439 1 -6 -4
-14 -1 -16 5 -4 10 -6 10 -6 1z m1271 -480 l3 -438 39 100 c101 258 184 373
329 458 65 38 167 74 258 92 79 14 329 22 329 9 0 -3 -27 -97 -59 -208 -33
-110 -249 -858 -480 -1662 l-421 -1461 0 -141 0 -142 -640 0 -640 0 0 1915 0
1915 640 0 640 0 2 -437z"/>
<path d="M3325 4192 c-36 -19 -73 -52 -57 -52 8 0 9 -7 2 -25 -5 -14 -9 -70
-9 -125 0 -55 -3 -105 -7 -112 -5 -7 -3 -8 6 -3 9 6 10 0 4 -26 -4 -19 -7 -49
-7 -66 0 -20 -3 -30 -10 -26 -6 4 -8 -2 -5 -15 4 -12 2 -24 -3 -27 -4 -3 -5
-13 -2 -22 4 -11 3 -14 -6 -9 -9 6 -10 0 -5 -20 5 -18 3 -25 -4 -20 -7 4 -10
-1 -7 -14 2 -11 -1 -20 -7 -20 -6 0 -8 -3 -5 -7 4 -3 1 -13 -6 -21 -10 -13 -9
-14 3 -7 12 7 13 6 3 -7 -7 -8 -10 -18 -6 -21 3 -4 1 -7 -6 -7 -8 0 -11 -8 -8
-20 3 -11 1 -20 -5 -20 -5 0 -6 -10 -3 -21 5 -16 4 -19 -5 -14 -10 6 -12 1 -8
-18 3 -15 0 -28 -7 -31 -7 -2 -12 -17 -11 -33 1 -15 -4 -37 -11 -48 -7 -11
-13 -29 -13 -40 0 -12 -6 -27 -12 -34 -11 -11 -10 -12 2 -6 13 8 13 6 2 -7 -7
-9 -14 -27 -16 -40 -1 -13 -6 -30 -12 -38 -5 -8 -10 -26 -11 -40 -5 -45 -6
-50 -16 -50 -6 0 -8 -3 -4 -6 3 -4 -1 -23 -9 -43 -14 -32 -24 -73 -26 -108 -1
-7 -6 -13 -11 -13 -6 0 -8 -3 -4 -6 3 -4 0 -18 -7 -33 -7 -14 -11 -36 -10 -48
0 -13 -2 -23 -7 -23 -5 0 -5 -7 -2 -17 5 -12 3 -14 -7 -8 -9 5 -11 4 -6 -4 4
-6 1 -24 -7 -39 -7 -16 -12 -37 -11 -47 2 -11 0 -22 -4 -25 -19 -14 -30 -48
-20 -58 8 -8 7 -13 -6 -18 -13 -5 -14 -9 -5 -20 9 -11 9 -14 0 -14 -7 0 -11
-6 -10 -12 1 -7 -3 -26 -9 -41 -7 -16 -12 -35 -12 -43 0 -8 -4 -13 -9 -9 -5 3
-10 -7 -10 -22 -1 -24 -3 -40 -10 -86 0 -5 -5 -6 -10 -3 -5 4 -7 -2 -4 -12 2
-10 -3 -24 -11 -31 -17 -15 -22 -36 -6 -26 6 3 7 -1 4 -9 -3 -9 -10 -16 -15
-16 -5 0 -8 -3 -8 -7 1 -5 1 -10 -1 -13 -7 -20 -7 -59 1 -55 5 3 6 -1 3 -9 -3
-9 -10 -16 -15 -16 -4 0 -6 -7 -3 -15 4 -8 1 -15 -6 -15 -6 0 -9 -4 -5 -10 5
-8 -10 -45 -25 -60 -3 -3 -6 -16 -7 -30 -5 -64 -15 -106 -27 -115 -7 -5 -12
-18 -10 -27 1 -10 -3 -18 -9 -18 -5 0 -8 -3 -4 -6 3 -3 -1 -23 -8 -45 -8 -21
-12 -39 -9 -39 2 0 -1 -10 -8 -22 -7 -13 -11 -26 -10 -31 1 -4 -5 -24 -13 -43
-8 -20 -13 -39 -11 -43 2 -3 -4 -23 -14 -44 -10 -20 -14 -37 -9 -37 5 0 4 -10
-3 -22 -7 -13 -12 -27 -13 -33 0 -5 -5 -19 -11 -30 -7 -11 -14 -38 -16 -60 -3
-23 -12 -52 -20 -65 -8 -14 -14 -37 -13 -52 1 -16 -4 -29 -13 -33 -8 -3 -11
-12 -8 -20 3 -8 2 -15 -3 -15 -5 0 -11 -11 -13 -25 -3 -14 -2 -25 3 -25 4 0
-1 -16 -11 -37 -9 -20 -15 -44 -13 -54 3 -11 -1 -21 -11 -25 -9 -3 -16 -13
-16 -21 0 -9 5 -11 13 -7 9 6 9 4 -1 -8 -13 -16 -17 -29 -32 -103 -5 -22 -15
-58 -24 -80 -8 -22 -15 -50 -16 -62 0 -12 -7 -28 -15 -36 -8 -8 -11 -17 -8
-21 3 -3 0 -12 -6 -20 -7 -8 -10 -20 -6 -26 4 -6 -1 -21 -12 -32 -10 -12 -12
-18 -5 -14 6 4 12 2 12 -3 0 -6 -5 -11 -11 -11 -5 0 -7 -5 -4 -10 4 -6 2 -16
-3 -23 -5 -7 -8 -28 -7 -47 2 -19 -2 -38 -8 -42 -9 -6 -9 -8 0 -8 7 0 10 -7 6
-17 -4 -11 -3 -14 5 -9 8 5 12 0 12 -13 0 -12 5 -21 10 -21 6 0 10 5 10 11 0
6 7 3 16 -5 8 -9 20 -16 25 -16 5 0 9 -6 9 -14 0 -17 27 -46 41 -46 6 0 7 6 3
13 -5 7 -1 6 10 -3 28 -22 78 -26 196 -16 46 4 109 10 190 16 8 1 22 4 30 7 8
4 22 7 30 7 8 1 20 4 25 8 6 3 27 9 48 13 20 4 37 11 37 16 0 5 6 6 14 3 8 -3
17 0 22 7 5 8 3 10 -6 4 -9 -5 -11 -4 -6 4 4 6 16 9 26 6 10 -3 25 1 33 9 8 8
16 13 19 11 2 -2 17 7 32 20 16 14 33 22 37 19 5 -3 9 -1 9 5 0 5 9 13 20 16
11 4 18 10 15 15 -3 4 2 7 12 6 14 -2 17 -17 17 -104 1 -56 -3 -102 -7 -102
-5 0 -5 -6 -1 -12 5 -7 9 -21 9 -32 1 -11 14 -30 29 -43 27 -23 52 -31 41 -13
-8 14 18 13 32 -1 6 -6 9 -17 7 -23 -7 -19 32 -49 56 -43 11 3 18 1 15 -4 -4
-5 35 -8 87 -8 51 1 98 0 103 -1 6 0 60 0 120 1 61 1 119 1 130 1 269 -4 769
-1 779 5 6 4 17 8 25 10 18 2 34 18 40 40 3 10 6 880 8 1933 2 1400 0 1926 -8
1958 -8 30 -17 42 -30 42 -10 0 -21 5 -24 10 -3 6 -16 10 -29 10 -12 0 -33 11
-45 24 -13 14 -29 22 -36 20 -8 -3 -23 0 -35 6 -16 9 -25 8 -38 -2 -9 -7 -13
-8 -10 -3 5 8 -160 11 -533 11 -370 0 -539 -3 -539 -11 0 -5 -4 -4 -9 4 -8 13
-12 13 -27 0 -11 -9 -15 -9 -10 -1 9 15 -1 14 -39 -6z m1225 -1947 l0 -1915
-605 0 -605 0 -2 408 -3 407 -39 -103 c-86 -229 -195 -357 -373 -439 -120 -55
-208 -74 -382 -80 l-154 -6 7 29 c4 16 219 757 477 1646 l469 1617 0 175 0
176 605 0 605 0 0 -1915z"/>
<path d="M6020 2641 l0 -434 48 45 c27 25 67 57 90 72 23 14 42 32 43 39 4 77
2 420 -3 423 -3 2 -2 19 3 36 5 17 6 45 3 61 -2 16 -5 46 -6 66 -1 20 -6 39
-12 43 -8 5 -7 8 1 8 13 0 8 25 -10 48 -8 11 -12 11 -18 0 -7 -10 -9 -9 -9 4
0 11 -7 15 -25 13 -14 -1 -28 2 -31 6 -3 5 -20 8 -39 6 l-34 -2 -1 -434z"/>
<path d="M11890 1999 c0 -589 -3 -1075 -6 -1080 -3 -5 -54 -9 -113 -9 l-107 0
-13 77 c-7 42 -15 82 -18 89 -3 10 -26 -5 -68 -44 -114 -104 -216 -142 -386
-142 -288 0 -493 135 -590 388 -29 77 -30 77 -23 27 3 -27 9 -52 12 -55 4 -3
8 -16 9 -30 1 -14 9 -43 19 -65 9 -22 18 -50 18 -63 1 -13 8 -27 15 -31 7 -5
12 -12 10 -16 -1 -4 5 -17 15 -29 56 -70 75 -100 69 -109 -3 -6 -1 -7 5 -3 7
4 12 1 12 -8 0 -9 6 -16 13 -16 7 0 23 -10 35 -22 26 -29 49 -48 59 -50 19 -2
53 -22 53 -30 0 -4 3 -7 8 -7 4 1 10 0 15 -1 4 -1 10 -3 15 -4 4 -1 17 -7 28
-14 21 -11 82 -28 134 -37 83 -14 114 -16 198 -16 51 0 100 5 109 10 9 4 24 6
34 4 11 -3 19 -1 19 5 0 5 12 12 28 15 50 9 70 15 94 28 13 7 26 12 30 11 5
-1 13 7 20 17 11 18 13 18 35 4 13 -9 22 -22 19 -29 -3 -8 1 -14 8 -14 8 0 16
-5 18 -11 3 -8 43 -12 123 -13 130 -1 186 4 179 15 -2 4 5 11 17 14 11 4 18 9
15 12 -3 3 0 15 6 26 7 14 10 202 9 616 -1 328 -2 601 -2 606 0 6 0 161 1 347
2 185 -1 341 -4 347 -4 6 -4 11 1 11 11 0 7 254 -5 258 -5 1 -7 13 -5 25 3 15
-3 26 -17 35 -18 11 -21 11 -14 0 4 -7 -2 -4 -14 6 -12 11 -25 16 -29 13 -3
-4 -13 -2 -20 5 -11 9 -16 9 -22 0 -4 -7 -12 -8 -21 -2 -8 6 -18 10 -22 10 -4
0 -8 -482 -8 -1071z"/>
<path d="M6700 2405 c0 -3 28 -19 63 -36 111 -56 189 -161 222 -301 12 -52 15
-161 15 -610 l0 -548 -129 0 -130 0 2 -60 c1 -33 5 -60 10 -60 4 0 5 -5 2 -11
-9 -13 26 -47 43 -41 7 2 18 -1 25 -7 8 -6 67 -10 142 -10 144 1 188 6 178 22
-4 6 0 8 9 4 15 -5 21 5 35 63 6 26 4 1043 -3 1085 -3 22 -5 49 -5 60 0 18
-12 67 -26 105 -3 8 -7 21 -9 29 -1 8 -9 18 -16 22 -7 5 -9 9 -4 9 5 0 2 7 -5
17 -8 9 -13 18 -11 20 6 9 1 23 -8 18 -5 -3 -10 0 -10 8 0 25 -60 99 -76 93
-7 -3 -13 -2 -11 2 1 4 -8 17 -20 30 -13 12 -23 19 -23 15 0 -3 -8 0 -17 8
-36 28 -63 40 -63 27 0 -6 -6 -3 -14 7 -8 11 -20 16 -29 12 -9 -3 -19 -2 -23
4 -3 6 -12 8 -20 5 -7 -3 -16 -1 -19 5 -4 5 -10 7 -15 4 -5 -3 -20 -1 -34 5
-14 5 -26 7 -26 5z"/>
<path d="M8183 2385 c16 -9 36 -14 45 -10 9 3 13 3 9 -1 -4 -4 14 -20 41 -34
67 -39 148 -129 183 -203 55 -118 59 -168 59 -723 l0 -504 -110 0 c-93 0 -110
2 -110 16 0 8 -7 46 -16 84 l-15 69 -54 -44 c-30 -24 -91 -62 -137 -84 -283
-140 -624 -65 -738 162 -31 62 -31 62 -27 22 7 -58 19 -105 26 -105 4 0 7 -10
8 -21 1 -12 19 -47 40 -78 20 -31 38 -59 38 -64 0 -4 13 -18 29 -32 27 -23 40
-29 58 -26 4 0 4 -7 1 -16 -4 -10 -2 -14 4 -10 6 4 16 0 23 -8 7 -8 16 -13 20
-10 5 3 11 1 15 -5 5 -9 77 -34 100 -35 6 0 13 -4 16 -8 8 -11 85 -19 189 -20
73 0 165 7 165 13 0 1 14 4 30 6 17 2 39 8 50 13 11 5 36 16 57 25 20 9 41 16
47 16 6 0 11 5 11 11 0 5 4 8 10 4 5 -3 18 3 28 13 15 15 21 16 30 6 7 -7 12
-17 12 -22 0 -17 45 -49 67 -47 12 1 20 -2 17 -6 -2 -5 50 -8 116 -7 66 1 120
6 120 11 0 5 7 6 16 3 8 -3 12 -2 9 4 -3 6 -1 10 4 10 6 0 11 6 11 14 0 8 6
16 13 18 9 4 12 119 13 526 1 287 -1 522 -5 522 -3 0 -6 21 -6 48 1 26 -7 64
-18 86 -10 21 -14 35 -8 31 6 -3 2 18 -10 47 -12 29 -22 58 -22 65 0 6 -6 9
-13 6 -6 -2 -12 2 -11 9 1 36 -3 53 -12 40 -6 -10 -10 -4 -14 18 -4 17 -11 29
-17 25 -5 -3 -10 -1 -10 5 0 6 -4 9 -9 6 -5 -3 -11 5 -15 17 -6 24 -89 91 -99
80 -4 -3 -13 0 -22 7 -8 7 -15 9 -15 4 0 -4 -7 1 -15 12 -8 10 -15 15 -15 10
0 -5 -7 -3 -15 4 -8 6 -20 8 -26 4 -7 -4 -9 -3 -5 4 7 12 -47 27 -63 18 -5 -4
-11 -2 -13 3 -1 5 -23 12 -48 15 l-45 7 28 -16z"/>
<path d="M9974 2369 c110 -58 180 -153 216 -295 19 -72 20 -112 20 -621 l0
-543 -131 0 -131 0 6 -52 c3 -29 7 -62 9 -73 3 -11 5 -23 6 -27 0 -5 8 -8 16
-8 8 0 15 -4 15 -8 0 -10 19 -12 155 -18 130 -6 186 0 217 25 21 18 22 26 25
182 4 224 4 752 0 817 -1 31 2 52 8 52 5 0 4 4 -2 8 -7 4 -11 21 -9 37 3 26
-3 84 -17 160 -9 47 -20 75 -30 75 -6 0 -7 3 -4 6 3 4 1 16 -5 28 -7 11 -13
23 -13 26 -5 26 -20 52 -36 60 -10 6 -19 17 -19 25 0 7 -5 17 -12 21 -7 5 -8
3 -3 -6 5 -9 4 -11 -4 -6 -6 4 -9 12 -6 17 8 13 -57 70 -72 64 -7 -2 -13 0
-13 4 0 12 -59 46 -94 55 -21 5 -26 4 -21 -6 4 -7 1 -6 -7 3 -7 9 -20 16 -28
17 -8 1 -33 4 -55 7 l-40 5 59 -31z"/>
<path d="M13176 2387 c4 -11 -42 -256 -50 -264 -2 -2 -43 4 -92 12 -181 32
-315 -10 -399 -125 l-35 -48 0 -526 0 -526 -130 0 c-139 0 -154 -5 -131 -49 6
-11 7 -22 3 -25 -5 -3 -7 -19 -4 -36 5 -34 53 -75 77 -66 8 3 15 1 15 -4 0 -6
55 -8 148 -6 175 6 166 5 181 29 7 11 8 16 2 13 -7 -4 -8 -1 -5 8 3 9 10 14
14 11 15 -9 17 58 16 547 0 273 1 495 4 493 3 -2 16 14 29 35 13 21 33 41 44
44 10 2 17 9 14 13 -3 5 4 10 15 10 12 1 24 7 28 14 4 6 12 9 18 5 6 -3 13 -2
17 4 3 5 37 7 83 4 181 -13 231 -12 252 3 12 8 19 21 16 29 -3 8 -1 14 5 14 6
0 9 8 8 18 -2 9 1 28 6 42 4 14 9 34 9 45 1 11 5 25 9 31 3 6 9 52 13 102 4
74 3 92 -10 99 -8 4 -16 13 -17 18 -2 6 -9 9 -16 7 -7 -2 -13 1 -13 6 0 10
-75 32 -109 32 -12 0 -18 -5 -15 -13z"/>
<path d="M17060 2386 c243 -90 355 -288 376 -665 l7 -121 -521 0 -520 0 5 -42
c29 -241 128 -370 315 -413 65 -14 126 -20 117 -10 -3 2 -15 6 -26 8 -12 1
-29 9 -39 17 -9 8 -20 15 -23 14 -3 0 -14 10 -24 23 -10 13 -23 20 -29 17 -7
-4 -8 -2 -4 4 4 7 -3 17 -18 23 -14 7 -23 15 -21 19 3 4 -5 30 -17 56 -12 27
-23 59 -25 72 -3 19 1 22 29 23 18 0 227 2 463 3 237 1 440 5 453 8 30 9 52
32 62 67 15 52 -3 335 -22 358 -6 7 -8 20 -4 28 3 8 1 15 -4 15 -5 0 -7 7 -4
15 4 8 1 21 -5 29 -6 7 -8 16 -5 19 6 6 -33 96 -45 107 -3 3 -6 11 -7 18 -1 6
-2 19 -2 27 -1 8 -9 15 -17 15 -9 0 -12 6 -8 16 4 10 -2 17 -17 21 -16 4 -18
8 -8 14 10 7 9 9 -4 9 -11 0 -15 5 -12 15 4 8 2 15 -3 15 -5 0 -18 7 -29 16
-10 8 -13 12 -5 8 24 -12 3 13 -31 38 -19 13 -29 16 -24 7 4 -7 -1 -4 -12 8
-11 12 -22 19 -26 16 -3 -4 -6 -1 -6 6 0 7 -4 9 -10 6 -5 -3 -10 -2 -10 4 0 6
-11 13 -25 17 -14 3 -25 10 -25 15 0 5 -5 9 -11 9 -5 0 -7 -6 -3 -12 4 -7 -2
-5 -13 5 -11 9 -27 17 -37 17 -9 0 -27 5 -38 11 -16 9 -19 8 -12 -3 6 -11 5
-11 -9 1 -9 7 -17 10 -17 5 0 -4 -5 -3 -12 4 -7 7 -26 12 -42 11 l-31 0 35
-13z"/>
<path d="M9192 2382 c-10 -7 -10 -26 -1 -100 l13 -92 50 48 c28 26 65 57 81
69 17 12 24 23 18 23 -7 0 -13 9 -13 21 0 11 -4 17 -10 14 -5 -3 -10 -1 -10 5
0 8 -15 10 -45 7 -25 -2 -48 0 -51 4 -6 11 -15 11 -32 1z"/>
<path d="M12550 2380 c0 -33 23 -180 29 -180 4 0 24 23 46 51 22 28 48 55 57
60 10 5 23 19 29 30 6 13 7 19 1 15 -6 -3 -12 -1 -14 5 -2 6 -19 13 -38 14
-19 2 -35 4 -35 5 0 1 -12 3 -27 5 -17 2 -28 -1 -28 -8 0 -7 -4 -6 -10 3 -9
13 -10 13 -10 0z"/>
<path d="M14170 2384 c0 -1 28 -15 63 -32 82 -41 168 -130 208 -216 54 -115
58 -169 59 -723 l0 -503 -110 0 c-87 0 -110 3 -110 14 0 7 -7 46 -16 85 l-16
72 -27 -24 c-115 -106 -297 -177 -456 -177 -204 0 -371 88 -446 233 -19 39
-29 51 -25 32 4 -16 7 -41 7 -54 -1 -12 2 -28 6 -35 7 -11 9 -16 11 -48 1 -10
10 -18 19 -18 12 0 14 -3 6 -11 -14 -14 65 -130 84 -124 7 2 12 1 12 -3 -4
-22 3 -33 16 -28 8 3 14 1 12 -5 -1 -6 7 -16 18 -22 10 -7 25 -18 33 -25 8 -7
19 -11 26 -9 6 2 16 -2 21 -9 6 -7 22 -15 37 -18 15 -2 33 -8 40 -12 7 -5 19
-9 28 -10 8 0 33 -5 55 -10 74 -16 330 -6 344 13 3 4 17 9 30 11 14 1 38 9 54
17 16 8 33 12 38 9 5 -3 9 0 9 6 0 6 14 16 30 21 17 6 30 14 30 18 0 4 9 7 19
7 11 0 17 -4 15 -8 -3 -4 7 -20 22 -35 14 -16 23 -21 19 -13 -5 9 0 7 14 -5
20 -17 39 -20 135 -22 75 -1 121 3 137 11 14 7 31 10 38 8 10 -3 12 0 8 12 -4
9 -1 16 4 16 6 0 9 9 6 20 -3 11 -2 22 3 25 12 7 4 1064 -8 1102 -6 17 -8 34
-4 37 3 3 1 6 -5 6 -5 0 -9 10 -8 23 2 26 -5 48 -14 43 -3 -2 -7 8 -8 23 -2
36 -46 117 -61 114 -7 -2 -9 4 -5 15 3 9 3 14 -2 10 -4 -4 -15 7 -24 24 -9 17
-20 31 -26 32 -5 0 -19 8 -29 18 -11 10 -26 18 -33 18 -7 0 -13 8 -13 17 0 9
-3 14 -6 10 -4 -3 -13 1 -21 9 -9 8 -22 13 -30 10 -9 -4 -11 -2 -7 6 5 8 2 9
-10 5 -9 -4 -15 -3 -12 1 3 5 -8 13 -25 19 -22 8 -29 8 -29 0 0 -7 -4 -6 -10
3 -5 8 -12 11 -16 8 -3 -4 -13 0 -21 8 -12 11 -18 12 -29 3 -9 -8 -14 -8 -14
-1 0 6 -9 10 -20 9 -11 -1 -20 -2 -20 -3z"/>
<path d="M15890 2298 l0 -93 -381 -525 -380 -525 143 -3 143 -3 23 28 c12 15
27 33 32 39 5 7 6 14 3 18 -3 3 2 8 11 12 9 3 16 12 16 18 0 7 12 23 26 37 14
13 32 39 39 57 8 17 19 32 24 32 6 0 11 7 11 15 0 9 7 18 15 21 8 4 15 12 15
20 0 8 4 14 9 14 6 0 21 18 34 40 13 22 26 38 29 35 3 -3 11 9 19 27 7 18 16
35 20 38 13 9 59 80 59 90 0 6 5 10 10 10 6 0 10 7 10 15 0 8 9 19 20 25 11 6
20 16 20 23 0 7 -4 6 -10 -3 -7 -10 -10 -11 -10 -2 0 7 10 17 23 23 13 6 43
41 67 77 25 37 57 82 72 100 16 18 28 40 28 48 0 8 4 12 10 9 5 -3 7 0 4 8 -3
8 2 17 10 20 10 4 13 13 9 23 -4 10 -2 15 3 11 11 -6 11 199 1 238 -3 11 -6
27 -7 35 -1 10 -3 11 -7 3 -2 -7 -9 -13 -14 -13 -4 0 -6 6 -3 14 3 8 -3 16
-15 19 -13 3 -19 1 -15 -5 4 -5 -4 -4 -17 3 -30 17 -42 18 -51 4 -5 -6 -8 -6
-8 3 0 6 -9 12 -20 12 -19 0 -20 -7 -20 -92z"/>
<path d="M7411 2163 c-1 -23 4 -45 10 -49 6 -3 9 -14 6 -24 -3 -11 2 -28 10
-39 8 -12 12 -21 8 -21 -3 0 1 -13 9 -29 9 -16 12 -31 9 -34 -3 -4 1 -9 10
-13 9 -3 14 -11 11 -18 -3 -7 2 -19 11 -26 12 -10 15 -10 15 1 0 11 2 11 9 0
9 -14 32 -16 124 -11 20 1 37 6 37 12 0 5 4 7 9 3 6 -3 14 3 20 12 6 10 11 13
11 6 0 -8 13 -6 43 7 27 12 43 15 46 8 2 -7 5 -7 10 0 8 13 170 39 221 36 59
-4 98 -15 119 -36 12 -10 26 -16 31 -13 6 4 9 1 8 -7 -2 -7 2 -12 9 -11 7 2
10 -3 7 -11 -3 -8 1 -27 10 -43 l15 -28 1 35 c0 55 -28 148 -58 194 -18 27
-47 51 -87 71 -57 29 -63 30 -189 29 -139 -1 -252 -24 -386 -78 l-59 -24 -25
71 c-24 72 -24 72 -25 30z"/>
<path d="M6375 2169 c-118 -15 -262 -89 -325 -169 l-30 -38 0 -526 0 -526
-134 0 -133 0 2 -65 c1 -35 7 -71 13 -78 7 -8 8 -18 4 -22 -4 -5 -2 -5 5 -1 6
3 14 2 17 -3 4 -5 17 -8 31 -7 13 2 22 -1 19 -6 -10 -15 298 -5 323 12 18 11
20 17 10 29 -9 12 -9 13 1 7 6 -4 13 -4 14 1 6 36 8 127 9 543 l2 474 24 46
c14 25 22 36 19 26 -6 -16 -4 -17 9 -6 8 7 15 19 15 28 0 8 3 12 6 9 4 -4 19
2 34 13 16 11 33 20 40 20 6 0 8 5 5 10 -3 6 5 10 19 10 13 0 32 7 40 16 9 8
16 12 16 8 0 -3 6 -2 13 3 6 5 51 9 99 8 67 0 91 -5 106 -18 10 -9 22 -14 25
-10 4 3 7 -1 7 -10 0 -9 4 -17 9 -17 5 0 16 -15 25 -32 l16 -33 -6 55 c-8 76
-31 145 -60 179 -48 57 -164 86 -289 70z"/>
<path d="M9585 2169 c-123 -15 -267 -92 -332 -178 l-33 -43 0 -519 0 -519
-128 0 -128 0 -3 -51 c-1 -28 3 -57 9 -64 7 -8 9 -18 6 -23 -7 -12 22 -38 31
-29 3 4 13 1 20 -5 35 -29 376 -17 358 12 -3 5 0 10 6 12 7 2 12 15 13 28 1
14 5 31 9 38 5 7 3 12 -3 12 -6 0 -8 5 -5 11 4 5 7 224 7 485 0 402 3 477 15
489 11 12 12 15 1 16 -7 0 -3 4 10 9 12 5 22 14 22 20 0 6 4 9 9 5 5 -3 12 3
16 12 5 16 120 78 138 75 4 -1 7 2 7 6 0 10 4 11 105 16 95 4 101 2 154 -46
l41 -37 0 33 c0 46 -23 119 -50 157 -45 63 -164 94 -295 78z"/>
<path d="M11260 2173 c-281 -22 -440 -219 -440 -542 1 -231 71 -390 200 -456
47 -24 166 -52 176 -42 3 3 -13 15 -36 27 -22 11 -43 27 -47 35 -3 8 -9 12
-14 9 -5 -3 -6 3 -2 12 4 12 3 15 -5 10 -7 -4 -12 -2 -12 4 0 12 -41 102 -50
110 -3 3 -7 21 -9 40 -1 19 -6 40 -10 45 -8 12 -6 138 3 210 7 57 36 145 48
145 4 0 14 16 23 36 15 37 53 84 69 84 5 0 17 10 27 22 11 11 19 18 19 14 0
-4 10 2 22 14 13 12 35 20 55 20 18 0 33 3 33 8 0 6 216 9 230 3 3 -2 20 -5
38 -8 l33 -4 -3 83 -3 83 -76 16 c-77 16 -207 27 -269 22z"/>
<path d="M13394 2141 c9 -57 45 -169 57 -177 5 -3 7 -10 4 -15 -4 -5 0 -16 9
-24 18 -18 30 -20 21 -2 -4 6 2 2 12 -11 17 -21 25 -23 78 -18 32 2 61 8 64
13 3 4 19 9 36 11 16 2 35 8 41 13 6 5 14 6 17 2 4 -3 13 0 22 7 8 7 15 9 15
5 0 -4 6 -3 13 3 6 6 30 13 52 17 22 4 49 10 60 12 26 6 141 7 180 2 16 -2 37
-11 46 -19 10 -8 29 -24 44 -35 14 -11 33 -31 41 -45 29 -49 6 80 -27 147 -34
71 -89 114 -171 133 -110 27 -344 -7 -508 -74 l-59 -24 -17 51 c-22 70 -39 85
-30 28z"/>
<path d="M16743 2169 c-83 -10 -142 -38 -201 -93 -49 -46 -103 -144 -117 -213
l-7 -33 117 0 c100 0 117 2 122 17 9 24 54 73 67 73 5 0 23 12 38 27 29 28 60
36 138 36 82 0 129 -7 134 -20 3 -7 15 -13 26 -13 14 0 20 -7 20 -22 0 -17 3
-19 9 -9 6 9 11 10 15 2 4 -6 5 -15 1 -20 -3 -6 0 -13 8 -18 7 -4 18 -19 25
-33 11 -22 12 -20 6 23 -16 137 -65 215 -164 264 -73 35 -140 45 -237 32z"/>
<path d="M14831 2095 c-2 -57 13 -100 30 -90 5 4 8 1 7 -7 -2 -8 6 -13 19 -12
13 1 20 -2 18 -7 -8 -12 87 -18 298 -17 l197 1 57 76 c31 42 63 84 71 94 14
16 -3 17 -340 17 l-355 0 -2 -55z"/>
<path d="M7895 1599 c-151 -22 -260 -85 -301 -172 -70 -150 26 -297 193 -297
l44 0 -20 21 c-11 12 -23 19 -28 16 -5 -3 -10 2 -11 11 -9 63 -7 88 5 100 7 8
11 18 7 23 -3 5 3 12 13 16 10 4 29 17 43 30 14 13 31 23 38 23 7 0 11 4 8 8
-2 4 5 9 17 10 12 0 51 8 87 16 36 9 107 16 158 16 l92 0 0 95 0 95 -142 -1
c-79 -1 -170 -5 -203 -10z"/>
<path d="M13875 1599 c-128 -19 -237 -71 -282 -136 -62 -88 -54 -214 18 -280
45 -41 189 -73 189 -42 0 6 -7 8 -16 5 -8 -3 -13 -2 -9 3 3 5 0 11 -5 13 -6 2
-12 10 -13 18 -2 8 -6 21 -11 28 -4 7 -4 27 0 45 4 17 7 36 6 40 -2 5 2 6 8 2
5 -3 15 5 22 19 6 14 17 26 25 26 7 0 13 4 13 8 0 12 93 50 137 57 21 3 49 8
63 10 14 3 64 5 113 6 l87 2 0 93 0 94 -142 -1 c-79 -1 -170 -5 -203 -10z"/>
<path d="M16155 1327 c7 -66 34 -158 54 -181 9 -11 10 -16 3 -12 -8 5 -5 -8 7
-30 12 -21 21 -43 21 -49 0 -5 11 -23 25 -39 13 -16 22 -33 18 -39 -3 -6 -1
-7 5 -3 7 4 12 4 12 -1 1 -14 70 -88 80 -85 6 1 9 -3 8 -9 -2 -6 5 -16 16 -22
10 -7 30 -22 44 -34 14 -13 33 -23 43 -23 9 0 19 -5 21 -11 2 -5 10 -11 18
-13 8 -1 24 -7 35 -13 11 -6 34 -13 50 -16 17 -3 47 -11 69 -17 62 -18 129
-27 241 -32 32 -2 280 27 280 32 0 1 12 4 28 6 40 7 169 52 176 61 3 5 13 8
21 8 8 0 23 8 33 19 10 12 17 14 17 6 0 -9 3 -10 13 -1 8 6 17 8 21 4 4 -4 9
3 13 15 3 12 12 22 20 22 20 0 15 122 -8 175 -10 23 -21 53 -24 67 -4 15 -13
32 -21 39 -8 6 -11 16 -8 21 3 5 -3 12 -15 15 -11 3 -19 8 -17 12 2 3 -24 7
-59 9 -35 1 -66 -2 -69 -7 -3 -4 5 -35 18 -67 42 -106 43 -100 -11 -127 -148
-75 -328 -117 -503 -117 -225 0 -378 55 -505 183 -80 81 -116 135 -151 235
l-24 67 5 -48z"/>
<path d="M15920 1026 l0 -116 -565 0 -564 0 3 -59 c3 -62 22 -103 55 -120 29
-16 1184 -10 1203 6 8 7 17 10 21 7 3 -3 11 5 18 18 16 28 24 308 9 308 -6 0
-10 9 -10 20 0 11 -5 20 -11 20 -5 0 -7 5 -4 10 3 6 0 10 -7 11 -7 0 -43 3
-80 5 l-68 5 0 -115z"/>
</g>
</svg>
